<?xml version="1.0" standalone="no"?>
<!DOCTYPE svg PUBLIC "-//W3C//DTD SVG 20010904//EN"
 "http://www.w3.org/TR/2001/REC-SVG-20010904/DTD/svg10.dtd">
<svg version="1.0" xmlns="http://www.w3.org/2000/svg"
 width="83.000000pt" height="86.000000pt" viewBox="0 0 83.000000 86.000000"
 preserveAspectRatio="xMidYMid meet">

<g transform="translate(0.000000,86.000000) scale(0.100000,-0.100000)"
fill="#000000" stroke="none">
<path d="M140 440 l0 -240 65 0 65 0 1 143 0 142 52 -132 c29 -72 54 -133 57
-136 3 -2 21 -7 42 -11 l36 -7 54 138 53 138 3 -137 3 -138 64 0 65 0 0 240 0
240 -84 0 -83 0 -54 -135 c-30 -74 -56 -135 -59 -135 -3 0 -30 60 -60 133
l-55 132 -83 3 -82 3 0 -241z"/>
</g>
</svg>
